<svg width="54" height="101" viewBox="0 0 54 101" fill="none" xmlns="http://www.w3.org/2000/svg">
<path fill-rule="evenodd" clip-rule="evenodd" d="M2.80965 46.571C2.80934 46.5713 2.80883 46.5713 2.80851 46.571C2.80819 46.5707 2.80768 46.5707 2.80737 46.571L0.822487 48.5559C-0.274048 49.6524 -0.274048 51.4303 0.822487 52.5268L48.4733 100.178C49.5698 101.274 51.3477 101.274 52.4442 100.178C53.5407 99.0811 53.5407 97.3032 52.4442 96.2067L26.579 70.3415C15.6443 59.4068 15.6443 41.6782 26.579 30.7435L52.5292 4.7933C53.6257 3.69677 53.6257 1.91893 52.5292 0.8224C51.4326 -0.274134 49.6548 -0.274133 48.5583 0.822401L2.80965 46.571Z" fill="black"/>
</svg>
