<svg width="41" height="78" viewBox="0 0 41 78" fill="none" xmlns="http://www.w3.org/2000/svg">
<path fill-rule="evenodd" clip-rule="evenodd" d="M17.5052 21.141C27.5368 31.1726 27.5368 47.4369 17.5053 57.4684L0.791041 74.1826C-0.0449306 75.0186 -0.0449304 76.374 0.791042 77.2099V77.2099C1.62701 78.0459 2.98239 78.0459 3.81836 77.2099L38.696 42.3323C38.6962 42.3321 38.6964 42.3321 38.6965 42.3323V42.3323C38.6966 42.3324 38.6968 42.3324 38.697 42.3323L40.2104 40.8189C41.0464 39.9829 41.0464 38.6275 40.2104 37.7915L3.88254 1.46368C3.04657 0.627709 1.69119 0.627708 0.855217 1.46368V1.46368C0.0192454 2.29965 0.0192456 3.65503 0.855217 4.491L17.5052 21.141Z" fill="#D3D3D3" fill-opacity="0.7"/>
</svg>
