<svg width="54" height="101" viewBox="0 0 54 101" fill="none" xmlns="http://www.w3.org/2000/svg">
<path fill-rule="evenodd" clip-rule="evenodd" d="M50.5419 54.429C50.5422 54.4287 50.5428 54.4287 50.5431 54.429C50.5434 54.4293 50.5439 54.4293 50.5442 54.429L52.5291 52.4441C53.6256 51.3476 53.6256 49.5697 52.5291 48.4732L4.87827 0.822367C3.78174 -0.274168 2.0039 -0.274168 0.907368 0.822367C-0.189167 1.9189 -0.189167 3.69673 0.907368 4.79327L26.7726 30.6585C37.7073 41.5932 37.7073 59.3218 26.7726 70.2565L0.822401 96.2067C-0.274134 97.3032 -0.274133 99.0811 0.822401 100.178C1.91894 101.274 3.69677 101.274 4.7933 100.178L50.5419 54.429Z" fill="black"/>
</svg>
