<svg width="30" height="55" viewBox="0 0 30 55" fill="none" xmlns="http://www.w3.org/2000/svg">
<path fill-rule="evenodd" clip-rule="evenodd" d="M12.3866 14.5032C19.5519 21.6685 19.5519 33.2858 12.3866 40.4511L0.447839 52.3898C-0.14928 52.9869 -0.14928 53.955 0.447839 54.5522V54.5522C1.04496 55.1493 2.01308 55.1493 2.6102 54.5522L27.5226 29.6397C27.5228 29.6396 27.523 29.6396 27.5231 29.6397V29.6397C27.5232 29.6399 27.5234 29.6399 27.5236 29.6397L28.6045 28.5588C29.2016 27.9617 29.2016 26.9936 28.6045 26.3965L2.65622 0.448148C2.0591 -0.148971 1.09098 -0.148971 0.493861 0.448148V0.448148C-0.103258 1.04527 -0.103258 2.01339 0.493861 2.61051L12.3866 14.5032Z" fill="#D3D3D3"/>
</svg>
